<svg xmlns="http://www.w3.org/2000/svg" xmlns:xlink="http://www.w3.org/1999/xlink" width="1935px" height="1935px" viewBox="0 0 1935.329256014637 1935.329256014637">
    <g id="923462be-04fb-4785-b440-06689a62f86a">
<path style="stroke: rgb(0,0,0); stroke-width: 20.36293743783097; stroke-dasharray: none; stroke-linecap: butt; stroke-dashoffset: 0; stroke-linejoin: round; stroke-miterlimit: 4; fill: rgb(0,0,0); fill-rule: nonzero; opacity: 1;" vector-effect="non-scaling-stroke" transform="matrix(1 0 0 1 88.154695 704.418851)  translate(20.418067, 264.16)" d="M266.8,-103.78l120.37,129.08h196.98l-120.37,-129.08zM139.63,-52.45l120.37,129.08l84.9,-155.48l-120.37,-129.08zM224.53,-207.93l120.37,129.08h307.56l-120.37,-129.08zM532.09,-207.93l120.37,129.08c18.15,1.07 34.96,8.52 47.26,21.71l-120.37,-129.08c-12.3,-13.19 -29.11,-20.64 -47.26,-21.71zM581.52,-183.78l120.37,129.08l1.13,1.13l-120.37,-129.08zM582.65,-182.65l120.37,129.08l128.69,-81.51l-120.37,-129.08zM-9.36,-12.77l120.37,129.08c7.21,7.73 17.47,12.77 29.36,12.77l-120.37,-129.08c-11.88,0 -22.15,-5.04 -29.36,-12.77zM20,0l120.37,129.08h386.42l-120.37,-129.08zM379.25,49.44l120.37,129.08l175.48,-30.19l-120.37,-129.08zM554.73,19.25l120.37,129.08l98.11,-179.25l-120.37,-129.08zM325.29,-160l-58.49,56.22h196.98l-28.68,51.33h-295.47l84.9,-155.48h307.56c18.15,1.07 34.96,8.52 47.26,21.71c0.74,0.79 1.46,1.61 2.17,2.44l1.13,1.13l128.69,-81.51h-639.64l9.81,26.04l-97.74,180.01c-7.94,15.88 -4.01,33.67 6.87,45.34c7.21,7.73 17.48,12.77 29.36,12.77h386.42l-27.17,49.44l175.48,-30.19l98.11,-179.25z" stroke-linecap="round"/>
</g>
<g id="6ce1eadb-26ee-419b-b41b-18b1dbab9cc8">
<g style="">
		<g id="f620b17f-c938-43b1-a562-6ff52b3d23da">
<path style="stroke: rgb(193,193,193); stroke-width: 0; stroke-dasharray: none; stroke-linecap: butt; stroke-dashoffset: 0; stroke-linejoin: miter; stroke-miterlimit: 4; fill: rgb(255,255,0); fill-rule: nonzero; opacity: 1;" d="M761.41276,808.57885l-98.11,179.25l-175.48,30.19l27.17,-49.44h-386.42c-29.81,0 -49.43,-31.7 -36.23,-58.11l97.74,-180.01l-9.81,-26.04h639.64l-128.69,81.51l-1.13,-1.13c-12.45,-14.71 -30.19,-23.02 -49.43,-24.15h-307.56l-84.9,155.48h295.47l28.68,-51.33h-196.98l58.49,-56.22z" stroke-linecap="round"/>
</g>
</g>
</g>
<g transform="matrix(1 0 0 1 88.154695 704.418851)" id="049f47f4-7732-4fe9-be94-2a3761659924">

</g>
<g transform="matrix(1 0 0 1 88.154695 704.418851)" id="d8d523ad-e83e-400a-beb0-6af829e0bbd7">

</g>
<g id="47ef9174-22ed-497e-888b-eb3fc175f1f4">
<path style="stroke: rgb(0,0,0); stroke-width: 20.36293743783097; stroke-dasharray: none; stroke-linecap: butt; stroke-dashoffset: 0; stroke-linejoin: round; stroke-miterlimit: 4; fill: rgb(0,0,0); fill-rule: nonzero; opacity: 1;" vector-effect="non-scaling-stroke" transform="matrix(1 0 0 1 88.154695 704.418851)  translate(20.418067, 264.16)" d="M266.8,-103.78l120.37,129.08h196.98l-120.37,-129.08zM139.63,-52.45l120.37,129.08l84.9,-155.48l-120.37,-129.08zM224.53,-207.93l120.37,129.08h307.56l-120.37,-129.08zM532.09,-207.93l120.37,129.08c18.15,1.07 34.96,8.52 47.26,21.71l-120.37,-129.08c-12.3,-13.19 -29.11,-20.64 -47.26,-21.71zM581.52,-183.78l120.37,129.08l1.13,1.13l-120.37,-129.08zM582.65,-182.65l120.37,129.08l128.69,-81.51l-120.37,-129.08zM-9.36,-12.77l120.37,129.08c7.21,7.73 17.47,12.77 29.36,12.77l-120.37,-129.08c-11.88,0 -22.15,-5.04 -29.36,-12.77zM20,0l120.37,129.08h386.42l-120.37,-129.08zM379.25,49.44l120.37,129.08l175.48,-30.19l-120.37,-129.08zM554.73,19.25l120.37,129.08l98.11,-179.25l-120.37,-129.08zM325.29,-160l-58.49,56.22h196.98l-28.68,51.33h-295.47l84.9,-155.48h307.56c18.15,1.07 34.96,8.52 47.26,21.71c0.74,0.79 1.46,1.61 2.17,2.44l1.13,1.13l128.69,-81.51h-639.64l9.81,26.04l-97.74,180.01c-7.94,15.88 -4.01,33.67 6.87,45.34c7.21,7.73 17.48,12.77 29.36,12.77h386.42l-27.17,49.44l175.48,-30.19l98.11,-179.25z" stroke-linecap="round"/>
</g>
<g id="2098670c-214a-4eab-986d-1ce6616456d5">
<g style="">
		<g id="9dbb5737-4ce6-428b-915a-0eb18b8db77f">
<path style="stroke: rgb(193,193,193); stroke-width: 0; stroke-dasharray: none; stroke-linecap: butt; stroke-dashoffset: 0; stroke-linejoin: miter; stroke-miterlimit: 4; fill: rgb(255,255,0); fill-rule: nonzero; opacity: 1;" d="M761.41276,808.57885l-98.11,179.25l-175.48,30.19l27.17,-49.44h-386.42c-29.81,0 -49.43,-31.7 -36.23,-58.11l97.74,-180.01l-9.81,-26.04h639.64l-128.69,81.51l-1.13,-1.13c-12.45,-14.71 -30.19,-23.02 -49.43,-24.15h-307.56l-84.9,155.48h295.47l28.68,-51.33h-196.98l58.49,-56.22z" stroke-linecap="round"/>
</g>
</g>
</g>
<g transform="matrix(1 0 0 1 88.154695 704.418851)" id="ea964fa2-343b-4f5c-9cbc-cebf993067b0">

</g>
<g transform="matrix(1 0 0 1 88.154695 704.418851)" id="0ca4ad57-3055-4532-93c6-217502acb9bf">

</g>
<g id="e8fe6986-ea19-4d44-8c4a-7c1aa7d8f722">
<path style="stroke: rgb(0,0,0); stroke-width: 22.06058486904897; stroke-dasharray: none; stroke-linecap: butt; stroke-dashoffset: 0; stroke-linejoin: round; stroke-miterlimit: 4; fill: rgb(0,0,0); fill-rule: nonzero; opacity: 1;" vector-effect="non-scaling-stroke" transform="matrix(1 0 0 1 793.063904 704.418851)  translate(-18.4, -278)" d="M188.67,568.88l130.4,139.84c2.32,-2.31 3.48,-6.06 3.48,-11.24l-130.4,-139.84c0,5.18 -1.16,8.93 -3.48,11.24zM192.15,557.64l130.4,139.84v-51.92l-130.4,-139.84zM192.15,505.72l130.4,139.84l62.14,-84.22l-130.4,-139.84zM254.29,421.5l130.4,139.84c6,-8.45 10.09,-15.81 12.27,-22.08l-130.4,-139.84c-2.19,6.27 -6.28,13.63 -12.27,22.08zM266.56,399.42l130.4,139.84c2.18,-6.27 3.27,-15.67 3.27,-28.2l-130.4,-139.84c0,12.53 -1.09,21.93 -3.27,28.2zM269.83,371.22l130.4,139.84v-78.5l-130.4,-139.84zM269.83,292.72l130.4,139.84c0,-5.18 -1.16,-8.93 -3.48,-11.24l-130.4,-139.84c2.32,2.31 3.48,6.06 3.48,11.24zM136.06,410.33l130.4,139.84c-0.95,-1.02 -1.88,-2.34 -2.78,-3.96l-130.4,-139.84c0.9,1.62 1.82,2.94 2.78,3.96zM133.28,406.37l130.4,139.84l-18.81,-29.43l-130.4,-139.84zM114.47,376.94l130.4,139.84c-1.9,-2.73 -2.99,-5.59 -3.27,-8.59l-130.4,-139.84c0.27,3 1.36,5.86 3.27,8.59zM111.2,368.35l130.4,139.84c-0.27,-2.99 -0.41,-5.85 -0.41,-8.58l-130.4,-139.84c0,2.73 0.14,5.59 0.41,8.58zM110.79,359.77l130.4,139.84v-67.05l-130.4,-139.84zM110.79,292.72l130.4,139.84c0,-5.18 -1.15,-8.93 -3.47,-11.24l-130.4,-139.84c2.31,2.31 3.47,6.06 3.47,11.24zM99.96,568.88l130.4,139.84c2.32,2.32 6.06,3.48 11.24,3.48l-130.4,-139.84c-5.18,0 -8.93,-1.16 -11.24,-3.48zM111.2,572.36l130.4,139.84h66.23l-130.4,-139.84zM177.43,572.36l130.4,139.84c5.18,0 8.93,-1.16 11.24,-3.48l-130.4,-139.84c-2.31,2.32 -6.06,3.48 -11.24,3.48zM188.67,568.88c2.32,-2.31 3.48,-6.06 3.48,-11.24v-51.92l62.14,-84.22c5.99,-8.45 10.08,-15.81 12.27,-22.08c2.18,-6.27 3.27,-15.67 3.27,-28.2v-78.5c0,-5.18 -1.16,-8.93 -3.48,-11.24c-2.31,-2.32 -6.06,-3.48 -11.24,-3.48h-60.92c-5.17,0 -8.92,1.16 -11.24,3.48c-2.31,2.31 -3.47,6.06 -3.47,11.24v67.05c0,2.73 -0.14,5.59 -0.41,8.58c-0.27,3 -1.36,5.86 -3.27,8.59l-18.81,29.43c-1.36,2.45 -2.79,4.23 -4.29,5.32c-1.5,1.09 -3.34,1.63 -5.52,1.63h-4.09c-2.18,0 -4.02,-0.54 -5.52,-1.63c-0.51,-0.37 -1.02,-0.83 -1.51,-1.36c-0.96,-1.02 -1.88,-2.34 -2.78,-3.96l-18.81,-29.43c-1.91,-2.73 -3,-5.59 -3.27,-8.59c-0.27,-2.99 -0.41,-5.85 -0.41,-8.58v-67.05c0,-5.18 -1.16,-8.93 -3.47,-11.24c-2.32,-2.32 -6.07,-3.48 -11.25,-3.48h-62.95c-5.18,0 -8.93,1.16 -11.25,3.48c-2.31,2.31 -3.47,6.06 -3.47,11.24v78.5c0,12.53 1.02,21.93 3.06,28.2c2.05,6.27 6.2,13.63 12.47,22.08l62.55,83.81v52.33c0,5.18 1.16,8.93 3.48,11.24c2.31,2.32 6.06,3.48 11.24,3.48h66.23c5.18,0 8.93,-1.16 11.24,-3.48zM514.92,553.76l130.4,139.84c15.13,-12.4 22.69,-30.19 22.69,-53.36l-130.4,-139.84c0,23.17 -7.56,40.96 -22.69,53.36zM537.61,500.4l130.4,139.84v-42.92l-130.4,-139.84zM537.61,457.48l130.4,139.84c0,-20.43 -4.66,-35.66 -14,-45.67l-130.41,-139.84c9.34,10.01 14.01,25.24 14.01,45.67zM405.36,378.08l130.4,139.84c-0.21,-0.23 -0.42,-0.47 -0.62,-0.73l-130.4,-139.84c0.2,0.25 0.4,0.5 0.62,0.73zM404.74,377.35l130.4,139.84c-1.9,-2.45 -2.86,-5.45 -2.86,-9l-130.4,-139.84c0,3.55 0.95,6.55 2.86,9zM401.88,368.35l130.4,139.84c0,-3.54 0.96,-6.47 2.86,-8.79l-130.4,-139.84c-1.91,2.32 -2.86,5.25 -2.86,8.79zM404.74,359.56l130.4,139.84c1.91,-2.31 4.64,-3.47 8.18,-3.47l-130.4,-139.84c-3.55,0 -6.27,1.16 -8.18,3.47zM412.92,356.09l130.4,139.84h95.25l-130.4,-139.84zM508.17,356.09l130.4,139.84c5.18,0 8.93,-1.16 11.25,-3.48l-130.4,-139.84c-2.32,2.32 -6.07,3.48 -11.25,3.48zM519.42,352.61l130.4,139.84c2.32,-2.31 3.47,-6.06 3.47,-11.24l-130.4,-139.84c0,5.18 -1.16,8.93 -3.47,11.24zM522.89,341.37l130.4,139.84v-48.65l-130.4,-139.84zM522.89,292.72l130.4,139.84c0,-5.18 -1.15,-8.93 -3.47,-11.24l-130.4,-139.84c2.31,2.31 3.47,6.06 3.47,11.24zM323.07,438.72l130.41,139.84c1.06,1.14 2.19,2.22 3.37,3.22l-130.4,-139.84c-1.19,-1 -2.31,-2.08 -3.38,-3.22zM326.45,441.94l130.4,139.84c11.58,9.81 26.91,16.08 45.99,18.81l-130.4,-139.84c-19.08,-2.73 -34.41,-9 -45.99,-18.81zM372.44,460.75l130.4,139.84l61.33,8.58l-130.4,-139.84zM433.77,469.33l130.4,139.84c3.28,0.25 5.81,1.33 7.57,3.22l-130.4,-139.84c-1.77,-1.89 -4.29,-2.97 -7.57,-3.22zM312.55,568.88l130.4,139.84c2.32,2.32 6.06,3.48 11.24,3.48l-130.4,-139.84c-5.18,0 -8.93,-1.16 -11.24,-3.48zM323.79,572.36l130.4,139.84h129.19l-130.4,-139.84zM452.98,572.36l130.4,139.84c26.17,0 46.82,-6.2 61.94,-18.6l-130.4,-139.84c-15.13,12.4 -35.77,18.6 -61.94,18.6zM514.92,553.76c15.13,-12.4 22.69,-30.19 22.69,-53.36v-42.92c0,-20.43 -4.67,-35.66 -14.01,-45.67c-1.12,-1.21 -2.31,-2.34 -3.57,-3.39c-11.72,-9.81 -27.12,-16.08 -46.2,-18.81l-60.91,-8.17c-3.18,-0.24 -5.7,-1.37 -7.56,-3.36c-0.22,-0.23 -0.42,-0.48 -0.62,-0.73c-1.91,-2.45 -2.86,-5.45 -2.86,-9c0,-3.54 0.95,-6.47 2.86,-8.79c1.91,-2.31 4.63,-3.47 8.18,-3.47h95.25c5.18,0 8.93,-1.16 11.25,-3.48c2.31,-2.31 3.47,-6.06 3.47,-11.24v-48.65c0,-5.18 -1.16,-8.93 -3.47,-11.24c-2.32,-2.32 -6.07,-3.48 -11.25,-3.48h-114.47c-26.44,0 -47.15,6.2 -62.14,18.6c-14.99,12.41 -22.49,30.19 -22.49,53.36v42.92c0,20.55 4.67,35.83 14,45.84c1.07,1.14 2.19,2.22 3.38,3.22c11.58,9.81 26.91,16.08 45.99,18.81l61.33,8.58c3.28,0.25 5.8,1.33 7.57,3.22c0.14,0.15 0.27,0.3 0.4,0.46c1.77,2.18 2.66,5.59 2.66,10.22c0,3.27 -0.89,6.07 -2.66,8.39c-1.77,2.31 -4.43,3.47 -7.97,3.47h-109.98c-5.18,0 -8.93,1.16 -11.24,3.48c-2.32,2.31 -3.48,6.06 -3.48,11.24v47.83c0,5.18 1.16,8.93 3.48,11.24c2.31,2.32 6.06,3.48 11.24,3.48h129.19c26.17,0 46.81,-6.2 61.94,-18.6zM728.33,568.88l130.4,139.84c2.32,-2.31 3.47,-6.06 3.47,-11.24l-130.4,-139.84c0,5.18 -1.16,8.93 -3.47,11.24zM731.8,557.64l130.4,139.84v-200.73l-130.4,-139.84zM731.8,356.91l130.4,139.84h60.1l-130.4,-139.84zM791.9,356.91l130.4,139.84c5.18,0 8.93,-1.16 11.24,-3.48l-130.4,-139.84c-2.31,2.32 -6.06,3.48 -11.24,3.48zM803.14,353.43l130.4,139.84c2.32,-2.31 3.48,-6.06 3.48,-11.24l-130.4,-139.84c0,5.18 -1.16,8.93 -3.48,11.24zM806.62,342.19l130.4,139.84v-49.47l-130.4,-139.84zM806.62,292.72l130.4,139.84c0,-5.18 -1.16,-8.93 -3.48,-11.24l-130.4,-139.84c2.32,2.31 3.48,6.06 3.48,11.24zM564.8,353.43l130.4,139.84c2.32,2.32 6.06,3.48 11.24,3.48l-130.4,-139.84c-5.18,0 -8.93,-1.16 -11.24,-3.48zM576.04,356.91l130.4,139.84h60.1l-130.4,-139.84zM639.61,568.88l130.4,139.84c2.32,2.32 6.07,3.48 11.24,3.48l-130.4,-139.84c-5.17,0 -8.92,-1.16 -11.24,-3.48zM650.85,572.36l130.4,139.84h66.23l-130.4,-139.84zM717.08,572.36l130.4,139.84c5.18,0 8.93,-1.16 11.25,-3.48l-130.4,-139.84c-2.32,2.32 -6.07,3.48 -11.25,3.48zM728.33,568.88c2.31,-2.31 3.47,-6.06 3.47,-11.24v-200.73h60.1c5.18,0 8.93,-1.16 11.24,-3.48c2.32,-2.31 3.48,-6.06 3.48,-11.24v-49.47c0,-5.18 -1.16,-8.93 -3.48,-11.24c-2.31,-2.32 -6.06,-3.48 -11.24,-3.48h-215.86c-5.18,0 -8.93,1.16 -11.24,3.48c-2.32,2.31 -3.48,6.06 -3.48,11.24v49.47c0,5.18 1.16,8.93 3.48,11.24c2.31,2.32 6.06,3.48 11.24,3.48h60.1v200.73c0,5.18 1.16,8.93 3.47,11.24c2.32,2.32 6.07,3.48 11.24,3.48h66.23c5.18,0 8.93,-1.16 11.25,-3.48z" stroke-linecap="round"/>
</g>
<g id="505539b3-bf6f-484e-8fe8-6c8fec2a8c0b">
<g style="">
		<g id="b7c86163-aa32-4faf-9bf7-6ff1691e6472">
<path style="stroke: rgb(193,193,193); stroke-width: 0; stroke-dasharray: none; stroke-linecap: butt; stroke-dashoffset: 0; stroke-linejoin: miter; stroke-miterlimit: 4; fill: rgb(255,255,0); fill-rule: nonzero; opacity: 1;" d="M952.0939,998.77885h-66.23c-5.18,0 -8.93,-1.16 -11.24,-3.48c-2.32,-2.31 -3.48,-6.06 -3.48,-11.24v-52.33l-62.55,-83.81c-6.27,-8.45 -10.42,-15.81 -12.47,-22.08c-2.04,-6.27 -3.06,-15.67 -3.06,-28.2v-78.5c0,-5.18 1.16,-8.93 3.47,-11.24c2.32,-2.32 6.07,-3.48 11.25,-3.48h62.95c5.18,0 8.93,1.16 11.25,3.48c2.31,2.31 3.47,6.06 3.47,11.24v67.05c0,2.73 0.14,5.59 0.41,8.58c0.27,3 1.36,5.86 3.27,8.59l18.81,29.43c1.36,2.45 2.79,4.23 4.29,5.32c1.5,1.09 3.34,1.63 5.52,1.63h4.09c2.18,0 4.02,-0.54 5.52,-1.63c1.5,-1.09 2.93,-2.87 4.29,-5.32l18.81,-29.43c1.91,-2.73 3,-5.59 3.27,-8.59c0.27,-2.99 0.41,-5.85 0.41,-8.58v-67.05c0,-5.18 1.16,-8.93 3.47,-11.24c2.32,-2.32 6.07,-3.48 11.24,-3.48h60.92c5.18,0 8.93,1.16 11.24,3.48c2.32,2.31 3.48,6.06 3.48,11.24v78.5c0,12.53 -1.09,21.93 -3.27,28.2c-2.19,6.27 -6.28,13.63 -12.27,22.08l-62.14,84.22v51.92c0,5.18 -1.16,8.93 -3.48,11.24c-2.31,2.32 -6.06,3.48 -11.24,3.48zM1227.6439,998.77885h-129.19c-5.18,0 -8.93,-1.16 -11.24,-3.48c-2.32,-2.31 -3.48,-6.06 -3.48,-11.24v-47.83c0,-5.18 1.16,-8.93 3.48,-11.24c2.31,-2.32 6.06,-3.48 11.24,-3.48h109.98c3.54,0 6.2,-1.16 7.97,-3.47c1.77,-2.32 2.66,-5.12 2.66,-8.39c0,-4.63 -0.89,-8.04 -2.66,-10.22c-1.77,-2.18 -4.43,-3.41 -7.97,-3.68l-61.33,-8.58c-19.08,-2.73 -34.41,-9 -45.99,-18.81c-11.59,-9.81 -17.38,-26.17 -17.38,-49.06v-42.92c0,-23.17 7.5,-40.95 22.49,-53.36c14.99,-12.4 35.7,-18.6 62.14,-18.6h114.47c5.18,0 8.93,1.16 11.25,3.48c2.31,2.31 3.47,6.06 3.47,11.24v48.65c0,5.18 -1.16,8.93 -3.47,11.24c-2.32,2.32 -6.07,3.48 -11.25,3.48h-95.25c-3.55,0 -6.27,1.16 -8.18,3.47c-1.91,2.32 -2.86,5.25 -2.86,8.79c0,3.55 0.95,6.55 2.86,9c1.91,2.45 4.63,3.82 8.18,4.09l60.91,8.17c19.08,2.73 34.48,9 46.2,18.81c11.72,9.81 17.58,26.17 17.58,49.06v42.92c0,23.17 -7.56,40.96 -22.69,53.36c-15.13,12.4 -35.77,18.6 -61.94,18.6zM1491.7439,998.77885h-66.23c-5.17,0 -8.92,-1.16 -11.24,-3.48c-2.31,-2.31 -3.47,-6.06 -3.47,-11.24v-200.73h-60.1c-5.18,0 -8.93,-1.16 -11.24,-3.48c-2.32,-2.31 -3.48,-6.06 -3.48,-11.24v-49.47c0,-5.18 1.16,-8.93 3.48,-11.24c2.31,-2.32 6.06,-3.48 11.24,-3.48h215.86c5.18,0 8.93,1.16 11.24,3.48c2.32,2.31 3.48,6.06 3.48,11.24v49.47c0,5.18 -1.16,8.93 -3.48,11.24c-2.31,2.32 -6.06,3.48 -11.24,3.48h-60.1v200.73c0,5.18 -1.16,8.93 -3.47,11.24c-2.32,2.32 -6.07,3.48 -11.25,3.48z" stroke-linecap="round"/>
</g>
</g>
</g>
<g transform="matrix(1 0 0 1 793.063904 704.418851)" id="25ab4738-5620-47ba-b08a-8f92c2818005">

</g>
<g transform="matrix(1 0 0 1 793.063904 704.418851)" id="fa92c195-147b-4ebe-85bc-266fbb23a439">

</g>
<g id="409a8182-b0e1-4fdf-a4c7-a476ef48b5aa">
<path style="stroke: rgb(0,0,0); stroke-width: 63.71053348426878; stroke-dasharray: none; stroke-linecap: butt; stroke-dashoffset: 0; stroke-linejoin: round; stroke-miterlimit: 4; fill: rgb(0,0,0); fill-rule: nonzero; opacity: 1;" vector-effect="non-scaling-stroke" transform="matrix(1 0 0 1 1120.927944 1010.351403)  translate(1.547786, 148.34)" d="M472.1,0l69.97,69.97c3.3,0 5.99,-0.3 8.06,-0.88l-69.97,-69.97c-2.07,0.59 -4.75,0.88 -8.06,0.88zM480.16,-0.88l69.97,69.97c2.06,-0.59 3.67,-1.47 4.85,-2.63l-69.97,-69.97c-1.17,1.17 -2.79,2.04 -4.85,2.63zM485.01,-3.51l69.97,69.97c1.17,-1.18 1.96,-2.64 2.38,-4.39l-69.97,-69.97c-0.41,1.75 -1.21,3.22 -2.38,4.39zM487.39,-7.9l69.97,69.97c0.41,-1.76 0.62,-3.78 0.62,-6.05l-69.97,-69.97c0,2.27 -0.21,4.29 -0.62,6.05zM488.01,-13.95l69.97,69.97v-46.07l-69.97,-69.97zM488.01,-60.02l69.97,69.97c0,-7.02 -0.73,-13.05 -2.17,-18.08l-69.97,-69.97c1.45,5.03 2.17,11.06 2.17,18.08zM485.84,-78.1l69.97,69.97c-1.45,-5.03 -3.5,-9.26 -6.15,-12.7l-69.97,-69.97c2.65,3.44 4.7,7.67 6.15,12.7zM479.69,-90.8l69.97,69.97c-0.92,-1.19 -1.89,-2.3 -2.91,-3.32l-69.97,-69.97c1.03,1.03 2,2.13 2.91,3.32zM381.38,-82.58l69.97,69.97c0.37,0.37 0.76,0.56 1.16,0.56l-69.97,-69.97c-0.4,0 -0.79,-0.19 -1.16,-0.56zM382.54,-82.02l69.97,69.97c0.34,0 0.68,-0.11 1.03,-0.31l-69.97,-69.97c-0.35,0.21 -0.69,0.31 -1.03,0.31zM383.57,-82.33l69.97,69.97c0.34,-0.21 0.72,-0.45 1.14,-0.72l-69.97,-69.97c-0.41,0.27 -0.79,0.51 -1.14,0.72zM384.71,-83.05l69.97,69.97c0.89,-0.56 1.99,-1.18 3.3,-1.86l-69.97,-69.97c-1.31,0.69 -2.41,1.31 -3.3,1.86zM388.01,-84.91l69.97,69.97c1.3,-0.7 2.68,-1.33 4.13,-1.91l-69.97,-69.97c-1.45,0.58 -2.82,1.22 -4.13,1.91zM392.14,-86.82l69.97,69.97c1.44,-0.59 2.94,-1.09 4.5,-1.5l-69.97,-69.97c-1.55,0.41 -3.05,0.91 -4.5,1.5zM396.64,-88.32l69.97,69.97c1.54,-0.42 3.01,-0.62 4.39,-0.62l-69.97,-69.97c-1.38,0 -2.84,0.21 -4.39,0.62zM401.03,-88.94l69.97,69.97c1.16,0 2.38,0.12 3.66,0.36l-69.97,-69.97c-1.27,-0.24 -2.49,-0.36 -3.66,-0.36zM404.69,-88.58l69.97,69.97c1.28,0.24 2.45,0.75 3.52,1.55l-69.97,-69.97c-1.07,-0.79 -2.24,-1.31 -3.52,-1.55zM408.21,-87.03l69.97,69.97c0.25,0.18 0.49,0.39 0.71,0.62l-69.96,-69.97c-0.23,-0.23 -0.47,-0.43 -0.72,-0.62zM379.32,-11.91l69.97,69.96c1.81,1.81 3.84,3.37 6.11,4.69l-69.97,-69.97c-2.27,-1.32 -4.3,-2.88 -6.11,-4.68zM385.43,-7.23l69.97,69.97c2.96,1.72 6.14,3.11 9.55,4.18l-69.97,-69.97c-3.41,-1.07 -6.59,-2.46 -9.55,-4.18zM394.98,-3.05l69.97,69.97c3.41,1.06 6.99,1.84 10.75,2.33l-69.97,-69.97c-3.75,-0.49 -7.34,-1.26 -10.75,-2.33zM405.73,-0.72l69.97,69.97c3.75,0.48 7.49,0.72 11.21,0.72l-69.97,-69.97c-3.72,0 -7.46,-0.24 -11.21,-0.72zM416.94,0l69.97,69.97h55.16l-69.97,-69.97zM472.1,0c3.31,0 5.99,-0.29 8.06,-0.88c2.06,-0.59 3.68,-1.46 4.85,-2.63c1.17,-1.17 1.97,-2.64 2.38,-4.39c0.41,-1.76 0.62,-3.78 0.62,-6.05v-46.07c0,-7.02 -0.72,-13.05 -2.17,-18.08c-1.45,-5.03 -3.5,-9.26 -6.15,-12.7c-0.91,-1.19 -1.88,-2.29 -2.91,-3.32c-1.96,-1.95 -4.12,-3.62 -6.49,-5c-3.61,-2.1 -7.61,-3.72 -11.98,-4.85c-4.37,-1.14 -9.02,-1.88 -13.95,-2.22c-4.92,-0.35 -9.96,-0.52 -15.13,-0.52c-5.44,0 -10.71,0.41 -15.81,1.24c-5.09,0.83 -9.83,1.89 -14.2,3.2c-4.37,1.31 -8.32,2.79 -11.83,4.44c-3.51,1.65 -6.41,3.27 -8.68,4.86c-0.41,0.27 -0.84,0.62 -1.29,1.03c-0.45,0.41 -0.67,0.9 -0.67,1.45c0,0.55 0.17,1.06 0.52,1.55l3.51,5.58c0.2,0.32 0.4,0.58 0.6,0.78c0.37,0.37 0.76,0.56 1.16,0.56c0.34,0 0.68,-0.1 1.03,-0.31c0.35,-0.21 0.73,-0.45 1.14,-0.72c0.89,-0.55 1.99,-1.17 3.3,-1.86c1.31,-0.69 2.68,-1.33 4.13,-1.91c1.45,-0.59 2.95,-1.09 4.5,-1.5c1.55,-0.41 3.01,-0.62 4.39,-0.62c1.17,0 2.39,0.12 3.66,0.36c1.28,0.24 2.45,0.76 3.52,1.55c0.25,0.19 0.49,0.39 0.72,0.62c0.75,0.75 1.38,1.73 1.91,2.94c0.69,1.59 1.03,3.72 1.03,6.41v7.13c-5.3,0.41 -10.43,1.37 -15.39,2.89c-4.96,1.51 -9.35,3.68 -13.17,6.51c-3.82,2.82 -6.87,6.37 -9.14,10.64c-2.27,4.27 -3.41,9.4 -3.41,15.39c0,4.47 0.62,8.43 1.86,11.88c1.24,3.44 2.94,6.43 5.11,8.98c0.51,0.6 1.04,1.17 1.59,1.73c1.81,1.8 3.84,3.36 6.11,4.68c2.96,1.72 6.14,3.11 9.55,4.18c3.41,1.07 7,1.84 10.75,2.33c3.75,0.48 7.49,0.72 11.21,0.72zM390.75,-19.87l69.96,69.97c-1.82,-1.83 -3.15,-3.93 -3.97,-6.32l-69.97,-69.97c0.83,2.39 2.15,4.5 3.98,6.32zM386.77,-26.19l69.97,69.97c-0.9,-2.58 -1.34,-5.32 -1.34,-8.21l-69.97,-69.97c0,2.89 0.45,5.63 1.34,8.21zM385.43,-34.4l69.97,69.97c0,-2.9 0.44,-5.7 1.34,-8.42l-69.97,-69.97c-0.89,2.72 -1.34,5.53 -1.34,8.42zM386.77,-42.82l69.97,69.97c0.89,-2.72 2.37,-5.12 4.44,-7.18l-69.97,-69.97c-2.07,2.07 -3.55,4.46 -4.44,7.18zM391.21,-50l69.97,69.97c2.06,-2.07 4.78,-3.72 8.16,-4.96l-69.97,-69.97c-3.37,1.24 -6.09,2.89 -8.16,4.96zM399.37,-54.96l69.97,69.97c3.38,-1.24 7.54,-1.86 12.5,-1.86l-69.97,-69.97c-4.95,0 -9.12,0.62 -12.5,1.86zM411.87,-13.22c-4.95,0 -9.12,-0.55 -12.5,-1.66c-3.37,-1.1 -6.09,-2.61 -8.16,-4.54c-0.16,-0.15 -0.31,-0.3 -0.46,-0.45c-1.83,-1.82 -3.15,-3.93 -3.98,-6.32c-0.89,-2.58 -1.34,-5.32 -1.34,-8.21c0,-2.89 0.45,-5.7 1.34,-8.42c0.89,-2.72 2.37,-5.11 4.44,-7.18c2.07,-2.07 4.79,-3.72 8.16,-4.96c3.38,-1.24 7.55,-1.86 12.5,-1.86zM510.01,-3.62l69.97,69.97c1.17,1.17 2.79,2.07 4.85,2.69l-69.97,-69.97c-2.06,-0.62 -3.68,-1.52 -4.85,-2.69zM514.86,-0.93l69.97,69.97c2.06,0.62 4.75,0.93 8.06,0.93l-69.97,-69.97c-3.31,0 -5.99,-0.31 -8.06,-0.93zM522.92,0l69.97,69.97h44.22l-69.97,-69.97zM567.14,0l69.97,69.97c3.99,0 7.12,-0.59 9.4,-1.76l-69.97,-69.97c-2.27,1.17 -5.41,1.76 -9.4,1.76zM576.54,-1.76l69.97,69.97c2.26,-1.17 3.95,-2.6 5.06,-4.28l-69.97,-69.97c-1.11,1.69 -2.79,3.11 -5.06,4.28zM581.6,-6.04l69.97,69.97c1.1,-1.69 1.78,-3.5 2.06,-5.43l-69.97,-69.97c-0.27,1.93 -0.96,3.74 -2.06,5.43zM583.66,-11.47l69.97,69.97c0.28,-1.93 0.42,-3.68 0.42,-5.26l-69.97,-69.97c0,1.58 -0.14,3.33 -0.42,5.26zM584.08,-16.73l69.97,69.97v-114.46l-69.97,-69.97zM584.08,-131.19l69.97,69.97c0,-1.66 -0.04,-3.47 -0.11,-5.43l-69.97,-69.97c0.07,1.97 0.11,3.78 0.11,5.43zM583.97,-136.62l69.97,69.97c-0.07,-1.96 -0.53,-3.82 -1.39,-5.57l-69.97,-69.97c0.86,1.75 1.32,3.61 1.39,5.57zM582.58,-142.19l69.97,69.97c-0.43,-0.87 -1,-1.66 -1.72,-2.38l-69.96,-69.97c0.72,0.72 1.29,1.52 1.71,2.38zM507.01,-14.36c0,2.41 0.21,4.51 0.62,6.3c0.41,1.79 1.21,3.27 2.38,4.44c1.17,1.17 2.79,2.07 4.85,2.69c2.07,0.62 4.75,0.93 8.06,0.93h44.22c3.99,0 7.13,-0.59 9.4,-1.76c2.27,-1.17 3.95,-2.59 5.06,-4.28c1.1,-1.69 1.79,-3.5 2.06,-5.43c0.28,-1.93 0.42,-3.68 0.42,-5.26v-114.46c0,-1.65 -0.04,-3.46 -0.11,-5.43c-0.07,-1.96 -0.53,-3.82 -1.39,-5.57c-0.42,-0.86 -0.99,-1.66 -1.71,-2.38c-0.75,-0.75 -1.66,-1.42 -2.73,-2.01c-2.1,-1.17 -5.15,-1.76 -9.15,-1.76h-46.07c-3.31,0 -5.99,0.31 -8.06,0.93c-2.06,0.62 -3.68,1.53 -4.85,2.74c-1.17,1.2 -1.97,2.7 -2.38,4.49c-0.41,1.79 -0.62,3.89 -0.62,6.3z" stroke-linecap="round"/>
</g>
<g id="e5d8c669-3046-4c2c-97ec-7db1bd3b269d">
<g style="">
		<g id="dbcbba37-48cf-42b4-bf42-0cdc67b39ef6">
<path style="stroke: rgb(193,193,193); stroke-width: 0; stroke-dasharray: none; stroke-linecap: butt; stroke-dashoffset: 0; stroke-linejoin: miter; stroke-miterlimit: 4; fill: rgb(255,255,0); fill-rule: nonzero; opacity: 1;" d="M1539.41573,1158.6914c-3.72,0 -7.46,-0.24 -11.21,-0.72c-3.75,-0.49 -7.34,-1.26 -10.75,-2.33c-3.41,-1.07 -6.59,-2.46 -9.55,-4.18c-2.96,-1.72 -5.53,-3.86 -7.7,-6.41c-2.17,-2.55 -3.87,-5.54 -5.11,-8.98c-1.24,-3.45 -1.86,-7.41 -1.86,-11.88c0,-5.99 1.14,-11.12 3.41,-15.39c2.27,-4.27 5.32,-7.82 9.14,-10.64c3.82,-2.83 8.21,-5 13.17,-6.51c4.96,-1.52 10.09,-2.48 15.39,-2.89v-7.13c0,-2.69 -0.34,-4.82 -1.03,-6.41c-0.69,-1.58 -1.56,-2.77 -2.63,-3.56c-1.07,-0.79 -2.24,-1.31 -3.52,-1.55c-1.27,-0.24 -2.49,-0.36 -3.66,-0.36c-1.38,0 -2.84,0.21 -4.39,0.62c-1.55,0.41 -3.05,0.91 -4.5,1.5c-1.45,0.58 -2.82,1.22 -4.13,1.91c-1.31,0.69 -2.41,1.31 -3.3,1.86c-0.41,0.27 -0.79,0.51 -1.14,0.72c-0.35,0.21 -0.69,0.31 -1.03,0.31c-0.62,0 -1.21,-0.45 -1.76,-1.34l-3.51,-5.58c-0.35,-0.49 -0.52,-1 -0.52,-1.55c0,-0.55 0.22,-1.04 0.67,-1.45c0.45,-0.41 0.88,-0.76 1.29,-1.03c2.27,-1.59 5.17,-3.21 8.68,-4.86c3.51,-1.65 7.46,-3.13 11.83,-4.44c4.37,-1.31 9.11,-2.37 14.2,-3.2c5.1,-0.83 10.37,-1.24 15.81,-1.24c5.17,0 10.21,0.17 15.13,0.52c4.93,0.34 9.58,1.08 13.95,2.22c4.37,1.13 8.37,2.75 11.98,4.85c3.61,2.1 6.75,4.87 9.4,8.32c2.65,3.44 4.7,7.67 6.15,12.7c1.45,5.03 2.17,11.06 2.17,18.08v46.07c0,2.27 -0.21,4.29 -0.62,6.05c-0.41,1.75 -1.21,3.22 -2.38,4.39c-1.17,1.17 -2.79,2.04 -4.85,2.63c-2.07,0.59 -4.75,0.88 -8.06,0.88zM1534.34573,1101.8714c-4.95,0 -9.12,0.62 -12.5,1.86c-3.37,1.24 -6.09,2.89 -8.16,4.96c-2.07,2.07 -3.55,4.46 -4.44,7.18c-0.89,2.72 -1.34,5.53 -1.34,8.42c0,2.89 0.45,5.63 1.34,8.21c0.89,2.59 2.37,4.84 4.44,6.77c2.07,1.93 4.79,3.44 8.16,4.54c3.38,1.11 7.55,1.66 12.5,1.66zM1629.48573,1024.8114c0,-2.41 0.21,-4.51 0.62,-6.3c0.41,-1.79 1.21,-3.29 2.38,-4.49c1.17,-1.21 2.79,-2.12 4.85,-2.74c2.07,-0.62 4.75,-0.93 8.06,-0.93h46.07c4,0 7.05,0.59 9.15,1.76c2.1,1.17 3.58,2.63 4.44,4.39c0.86,1.75 1.32,3.61 1.39,5.57c0.07,1.97 0.11,3.78 0.11,5.43v114.46c0,1.58 -0.14,3.33 -0.42,5.26c-0.27,1.93 -0.96,3.74 -2.06,5.43c-1.11,1.69 -2.79,3.11 -5.06,4.28c-2.27,1.17 -5.41,1.76 -9.4,1.76h-44.22c-3.31,0 -5.99,-0.31 -8.06,-0.93c-2.06,-0.62 -3.68,-1.52 -4.85,-2.69c-1.17,-1.17 -1.97,-2.65 -2.38,-4.44c-0.41,-1.79 -0.62,-3.89 -0.62,-6.3z" stroke-linecap="round"/>
</g>
</g>
</g>
<g transform="matrix(1 0 0 1 1120.927944 1010.351403)" id="975e09a4-b16f-4e58-8bcc-e5b6358c1fdc">

</g>
<g transform="matrix(1 0 0 1 1120.927944 1010.351403)" id="b87d4bf4-3212-4471-adcf-bf690c1e4522">

</g>
<g id="bc733d3e-aa09-440a-beff-eaf194ed5698">
<g style="">
		<g id="4164bd73-28a7-463d-a55a-5829b855964a">
<path style="stroke: rgb(0,0,0); stroke-width: 35.068034; stroke-dasharray: none; stroke-linecap: round; stroke-dashoffset: 0; stroke-linejoin: round; stroke-miterlimit: 10; fill: rgb(255,255,255); fill-opacity: 0; fill-rule: nonzero; opacity: 1;" d="M1692.6841,732.68712c0.04023,0.02022 0.08276,0.04573 0.12299,0.06596c0.09874,0.06079 0.1922,0.12388 0.28715,0.18317c0.05242,0.03378 0.10483,0.06757 0.15346,0.09986c0.11932,0.08642 0.23864,0.17284 0.35416,0.25776c0.0646,0.04735 0.12921,0.09469 0.19001,0.14055c0.14748,0.11503 0.29876,0.23156 0.44475,0.35039c0.07679,0.06091 0.15737,0.12331 0.23646,0.1895c0.18174,0.15043 0.36578,0.30615 0.55131,0.45808c0.09886,0.08274 0.19393,0.16399 0.29279,0.24674c0.22439,0.1979 0.45407,0.3935 0.67846,0.59139c0.05932,0.04965 0.12093,0.10458 0.18025,0.15423c0.19473,0.17307 0.38716,0.34086 0.5819,0.51394c2.66761,2.36053 5.29535,4.76669 7.92986,7.16677c3.2386,2.9578 6.47341,5.91411 9.71879,8.86582c10.51438,9.5603 21.06266,19.09013 31.61244,28.61616c11.11041,10.02722 22.23208,20.03696 33.34248,30.06418c4.22433,3.81478 8.44716,7.63336 12.65792,11.46032c3.03766,2.75599 6.07003,5.51428 9.06402,8.31442c0.24577,0.23261 0.49155,0.46522 0.73353,0.69633c0.21382,0.2025 0.42763,0.405 0.63995,0.61129c0.18416,0.17767 0.36832,0.35535 0.55247,0.53302c0.1545,0.15285 0.31279,0.3072 0.46729,0.46005c0.08679,0.09114 0.17887,0.17997 0.26566,0.27111c0.04414,0.04367 0.08449,0.08585 0.12864,0.12952c0.07081,0.07608 0.14691,0.14986 0.22152,0.22744c0.03276,0.03919 0.07081,0.07608 0.10507,0.11148c0.06093,0.06781 0.11955,0.13033 0.18048,0.19814c0.05863,0.06252 0.11726,0.12504 0.1706,0.18986c0.0838,0.09872 0.16382,0.19596 0.24762,0.29468c0.03506,0.04448 0.07013,0.08896 0.10749,0.13872c0.05035,0.07241 0.09691,0.14332 0.14727,0.21573c0.05426,0.09586 0.10474,0.19022 0.15521,0.28458c0.03058,0.05586 0.05588,0.11402 0.08266,0.16838c0.0522,0.13448 0.1044,0.26896 0.1589,0.40872c0.0261,0.06724 0.05071,0.13827 0.07531,0.20931c0.04623,0.14965 0.09394,0.29551 0.14017,0.44517c0.01932,0.07333 0.04243,0.14816 0.06554,0.22299c0.03105,0.14368 0.0659,0.28885 0.10074,0.43402c0.03359,0.19288 0.06717,0.38575 0.09697,0.57713c0.01197,0.11426 0.02624,0.2338 0.0382,0.34805c-0.00112,0.21426 -0.00374,0.43232 -0.00486,0.64658c-0.00425,0.05529 -0.00849,0.11058 -0.01274,0.16587c-0.01757,0.11139 -0.03894,0.22128 -0.05651,0.33267c-0.00804,0.0538 -0.02136,0.10989 -0.0309,0.16748c-0.03723,0.11679 -0.07595,0.23738 -0.11317,0.35417c-0.01861,0.0584 -0.03872,0.12059 -0.06262,0.18128c-0.05607,0.13128 -0.11594,0.26107 -0.17052,0.38855c-0.03597,0.06909 -0.06665,0.13588 -0.09733,0.20267c-0.084,0.14657 -0.16801,0.29315 -0.25201,0.43972c-0.04275,0.07518 -0.09078,0.15267 -0.13353,0.22785c-0.11343,0.16566 -0.22455,0.33661 -0.33798,0.50227c-0.0578,0.09116 -0.11791,0.17704 -0.17801,0.26292c-0.14733,0.19613 -0.28937,0.38996 -0.43521,0.58229c-0.07516,0.10186 -0.15411,0.20222 -0.22927,0.30408c-0.18123,0.2266 -0.36246,0.45319 -0.5422,0.67599c-0.09401,0.11634 -0.18951,0.23648 -0.28351,0.35283c-0.22042,0.25936 -0.44234,0.52252 -0.66276,0.78188c-0.11435,0.13463 -0.23019,0.27304 -0.34454,0.40767c-0.26409,0.30351 -0.5267,0.60323 -0.79458,0.90525c-0.13618,0.1567 -0.27237,0.3134 -0.41235,0.4686c-3.30361,3.69434 -6.68481,7.3187 -10.05762,10.95512c-4.29037,4.62032 -8.57844,9.24592 -12.8665,13.87152c-13.91347,15.00602 -27.82463,30.01733 -41.76776,44.99853c-10.98726,11.8028 -21.94026,23.64101 -32.89787,35.46863c-3.95237,4.26265 -7.90475,8.5253 -11.86551,12.77588c-3.02964,3.2545 -6.0555,6.5105 -9.14296,9.71156c-0.16113,0.16441 -0.31696,0.32651 -0.47809,0.49092c-0.18446,0.19027 -0.3727,0.37905 -0.56095,0.56783c-0.14756,0.15222 -0.29743,0.29915 -0.44729,0.44608c-0.067,0.07002 -0.1363,0.13474 -0.2071,0.20327c-0.10619,0.10278 -0.21767,0.20787 -0.32766,0.30916c-0.04896,0.04645 -0.09792,0.0929 -0.14688,0.13934c-0.07689,0.06174 -0.15148,0.12877 -0.22457,0.192c-0.08217,0.06404 -0.16665,0.1228 -0.24733,0.18304c-0.08677,0.05347 -0.17504,0.11073 -0.26181,0.16419c-0.19711,0.08889 -0.38894,0.17548 -0.58076,0.26207c-0.10425,0.04221 -0.2032,0.08211 -0.30216,0.12202c-0.21091,0.05717 -0.42182,0.11434 -0.63273,0.17151c-0.10965,0.02255 -0.21551,0.04659 -0.32286,0.07443c-0.22471,0.02545 -0.44562,0.05238 -0.67032,0.07783c-0.10896,0.00968 -0.22321,0.02165 -0.33597,0.02983c-0.22712,-0.0018 -0.45425,-0.00359 -0.68516,-0.00688c-0.11207,-0.00469 -0.22793,-0.01088 -0.34,-0.01557c-0.22805,-0.03283 -0.4523,-0.06417 -0.68035,-0.097c-0.10989,-0.02136 -0.22506,-0.04042 -0.33644,-0.05799c-0.21989,-0.06467 -0.43748,-0.12406 -0.65507,-0.18345c-0.1077,-0.03803 -0.2169,-0.07226 -0.3261,-0.1065c-0.20185,-0.08824 -0.40749,-0.17798 -0.61163,-0.27151c-0.09943,-0.04791 -0.19886,-0.09583 -0.30208,-0.14524c-0.18082,-0.1194 -0.36692,-0.23649 -0.55153,-0.35738c-0.03115,-0.02103 -0.0623,-0.04206 -0.09196,-0.06688c-0.07828,-0.05711 -0.15507,-0.11802 -0.23335,-0.17514c-0.03954,-0.0331 -0.07909,-0.0662 -0.12392,-0.09699c-0.10116,-0.08803 -0.20381,-0.17227 -0.31026,-0.258c-0.05322,-0.04287 -0.10875,-0.09102 -0.16576,-0.13538c-0.13461,-0.11435 -0.26922,-0.2287 -0.40234,-0.34684c-0.07299,-0.05941 -0.1445,-0.12262 -0.21749,-0.18204c-0.26393,-0.231 -0.52787,-0.46199 -0.79031,-0.69678c-0.32785,-0.29122 -0.6557,-0.58243 -0.98354,-0.87365c-5.78758,-5.21903 -11.49541,-10.52935 -17.21679,-15.82748c-8.8217,-8.16205 -17.62835,-16.34007 -26.46062,-24.49752c-5.32951,-4.92474 -10.68085,-9.8274 -16.02242,-14.74375c-8.3559,-7.6982 -16.70353,-15.40629 -25.06323,-23.10599c-2.48933,-2.29033 -4.97866,-4.58065 -7.46949,-6.86718c-2.19332,-2.00726 -4.39193,-4.01223 -6.574,-6.03697c-0.44131,-0.41476 -0.88641,-0.83102 -1.32772,-1.24578c-0.38958,-0.3681 -0.77916,-0.73621 -1.16874,-1.10431c-0.33486,-0.32903 -0.67122,-0.65427 -1.01137,-0.981c-0.19485,-0.19503 -0.39119,-0.38627 -0.58604,-0.5813c-0.09438,-0.09412 -0.18876,-0.18825 -0.28313,-0.28237c-0.16898,-0.1717 -0.33418,-0.34191 -0.49937,-0.51211c-0.0807,-0.08436 -0.1614,-0.16871 -0.24359,-0.24928c-0.13783,-0.15067 -0.27946,-0.30283 -0.41729,-0.45351c-0.06851,-0.07079 -0.13553,-0.14538 -0.20405,-0.21618c-0.11806,-0.13412 -0.23233,-0.26675 -0.35039,-0.40087c-0.05334,-0.06482 -0.11197,-0.12734 -0.16531,-0.19216c-0.093,-0.11987 -0.19129,-0.23745 -0.28579,-0.35353c-0.04345,-0.05655 -0.0907,-0.11459 -0.13416,-0.17113c-0.07553,-0.10861 -0.15255,-0.21343 -0.22958,-0.31825c-0.07323,-0.10332 -0.14646,-0.20665 -0.2159,-0.30848c-0.10014,-0.17964 -0.19878,-0.36308 -0.29892,-0.54273c-0.1013,-0.25459 -0.20408,-0.50539 -0.30538,-0.75998c-0.01932,-0.07333 -0.04393,-0.14437 -0.06704,-0.21919c-0.03703,-0.1285 -0.07026,-0.25552 -0.10878,-0.38023c-0.01472,-0.06276 -0.03093,-0.12172 -0.04945,-0.18598c-0.02254,-0.10966 -0.04508,-0.21931 -0.06763,-0.32897c-0.01875,-0.10816 -0.03371,-0.21483 -0.05245,-0.32299c0.00423,-0.19989 0.00995,-0.40358 0.01797,-0.60198c0.00425,-0.05529 0.01079,-0.10529 0.01883,-0.15909c0.02286,-0.11369 0.04422,-0.22358 0.07088,-0.33578c0.01103,-0.06138 0.02435,-0.11748 0.03917,-0.17737c0.04171,-0.12817 0.08491,-0.26014 0.12432,-0.3936c0.0216,-0.06598 0.04469,-0.13576 0.06779,-0.20554c0.05745,-0.15703 0.12019,-0.31636 0.17764,-0.47339c0.11054,-0.28072 0.22107,-0.56145 0.33012,-0.83837c0.04562,-0.10473 0.08894,-0.21474 0.13076,-0.32096c0.08905,-0.19278 0.17581,-0.39085 0.26636,-0.58743c0.04642,-0.09565 0.09285,-0.19129 0.14076,-0.29073c0.11549,-0.20428 0.23477,-0.40707 0.35026,-0.61136c0.03379,-0.05242 0.06757,-0.10484 0.10136,-0.15727c0.07585,-0.11473 0.1502,-0.22567 0.22604,-0.3404c0.04057,-0.05852 0.08113,-0.11703 0.1217,-0.17555c0.0932,-0.12543 0.1841,-0.25614 0.2773,-0.38156c0.05263,-0.06691 0.09998,-0.13152 0.14882,-0.19992c0.11354,-0.14371 0.22858,-0.2912 0.34741,-0.43721c0.05941,-0.073 0.11653,-0.15129 0.17744,-0.22809c0.14067,-0.16808 0.28133,-0.33616 0.422,-0.50424c0.07068,-0.09048 0.14365,-0.17567 0.21812,-0.26465c0.16928,-0.19625 0.33856,-0.39249 0.50405,-0.59024c0.08803,-0.10117 0.17606,-0.20234 0.26409,-0.30351c0.30777,-0.34766 0.61174,-0.69681 0.91801,-1.04068c0.35971,-0.40169 0.71942,-0.80339 1.07914,-1.20508c3.1541,-3.48155 6.34245,-6.9277 9.5285,-10.37914c4.55136,-4.93819 9.10122,-9.8726 13.65108,-14.807c14.43303,-15.66902 28.85617,-31.34632 43.31276,-46.99729c3.75734,-4.06778 7.52837,-8.12579 11.28571,-12.19357c5.56982,-6.02257 11.12217,-12.0564 16.6798,-18.09254c4.69961,-5.10329 9.4045,-10.20887 14.12159,-15.3009c2.65246,-2.86407 5.30492,-5.72814 7.98934,-8.5621c0.16411,-0.17199 0.32673,-0.34019 0.49085,-0.51218c0.07378,-0.07611 0.14756,-0.15222 0.22135,-0.22833c0.06401,-0.06243 0.12952,-0.12865 0.19354,-0.19108c0.06103,-0.05484 0.12056,-0.10589 0.18538,-0.15924c0.13424,-0.09612 0.26698,-0.18845 0.40122,-0.28457c0.06712,-0.04806 0.13803,-0.09463 0.20515,-0.14269c0.15022,-0.08107 0.29515,-0.15983 0.44536,-0.2409c0.07701,-0.03979 0.15022,-0.08107 0.22573,-0.11706c0.15861,-0.069 0.31572,-0.1342 0.47433,-0.2032c0.0816,-0.02921 0.15941,-0.05992 0.24251,-0.09292c0.16401,-0.04934 0.32803,-0.09869 0.49204,-0.14803c0.08011,-0.02542 0.16401,-0.04934 0.24642,-0.06947c0.16712,-0.03498 0.33274,-0.06616 0.49986,-0.10113c0.08322,-0.01105 0.16413,-0.02739 0.24884,-0.04223c0.16344,-0.01451 0.33068,-0.02753 0.49412,-0.04205c0.08172,-0.00726 0.16574,-0.00923 0.24746,-0.01648c0.15977,0.00595 0.31954,0.01189 0.47551,0.01635c0.22954,0.02904 0.45759,0.06187 0.68713,0.09091c0.08035,0.01849 0.16219,0.03319 0.24253,0.05168c0.13644,0.03181 0.27288,0.06363 0.40932,0.09544c0.07127,0.0193 0.13724,0.0409 0.20472,0.0587c0.15483,0.07411 0.30737,0.14294 0.4622,0.21705zM1655.19893,861.94546c-0.15311,-0.034 -0.30851,-0.07328 -0.46541,-0.10877c-0.07805,-0.0132 -0.15989,-0.0279 -0.23793,-0.04111c-0.16735,-0.00893 -0.32942,-0.02017 -0.49678,-0.0291c-0.08402,0.00197 -0.16655,0.00015 -0.24908,-0.00168c-0.17402,0.01911 -0.34654,0.03443 -0.51907,0.04975c-0.08471,0.01484 -0.17172,0.0244 -0.26022,0.03775c-0.17769,0.03958 -0.35539,0.07915 -0.53078,0.12401c-0.09149,0.02094 -0.17919,0.04337 -0.26838,0.06959c-0.17758,0.06153 -0.36044,0.12536 -0.53801,0.18689c-0.09218,0.03381 -0.18056,0.06912 -0.26895,0.10442c-0.18125,0.08199 -0.35871,0.16548 -0.53996,0.24747c-0.08758,0.04439 -0.17895,0.08728 -0.26653,0.13166c-0.18113,0.10395 -0.35698,0.20559 -0.53282,0.30724c-0.08677,0.05347 -0.17734,0.10544 -0.26411,0.15891c-0.16895,0.11751 -0.34318,0.23732 -0.51362,0.35862c-0.17044,0.1213 -0.34088,0.2426 -0.51132,0.3639c-0.3149,0.28789 -0.6298,0.57578 -0.9447,0.86366c-0.07378,0.07611 -0.15136,0.15072 -0.22514,0.22683c-0.14147,0.159 -0.28674,0.3165 -0.42821,0.4755c-0.0662,0.0791 -0.13768,0.16049 -0.20537,0.24338c-0.1263,0.16497 -0.25409,0.33374 -0.38188,0.50251c-0.0601,0.08588 -0.124,0.17026 -0.1841,0.25614c-0.10883,0.17624 -0.22145,0.35098 -0.33027,0.52721c-0.05252,0.08886 -0.10503,0.17773 -0.15755,0.26659c-0.08986,0.1837 -0.17823,0.36361 -0.26809,0.54732c-0.04493,0.09185 -0.08457,0.1814 -0.12571,0.27475c-0.0694,0.18738 -0.1388,0.37476 -0.20291,0.55983c-0.07571,0.28129 -0.14912,0.56787 -0.22483,0.84916c-0.02286,0.11369 -0.04192,0.22887 -0.06478,0.34256c-0.0148,0.20449 -0.0311,0.41278 -0.04739,0.62107c0.00104,0.05299 -0.00171,0.10449 -0.00067,0.15748c0.00737,0.10368 0.01623,0.20357 0.0274,0.30874c0.00633,0.05069 0.01266,0.10138 0.02128,0.15736c0.02404,0.10586 0.05187,0.21322 0.08119,0.31678c0.01391,0.05368 0.03162,0.10885 0.04554,0.16253c0.0468,0.11482 0.09359,0.22965 0.14188,0.34068c0.02529,0.05816 0.05438,0.11781 0.07968,0.17597c0.06955,0.12379 0.1429,0.24906 0.21246,0.37285c0.04047,0.06413 0.07714,0.12677 0.11761,0.19091c0.09461,0.13803 0.19302,0.27756 0.29143,0.41709c0.05035,0.07241 0.1045,0.14631 0.15635,0.21492c0.12577,0.15906 0.25302,0.31433 0.37879,0.4734c0.06932,0.07988 0.13715,0.16354 0.20646,0.24342c0.15692,0.18009 0.31763,0.36168 0.47604,0.53798c0.0853,0.09493 0.17209,0.18607 0.25359,0.27951c0.19566,0.20411 0.39131,0.40822 0.58926,0.61762c0.10277,0.10619 0.20554,0.21238 0.30831,0.31858c0.2329,0.23192 0.4681,0.46913 0.70479,0.70254c0.12254,0.12274 0.24279,0.2402 0.36533,0.36294c0.42234,0.4073 0.84089,0.8131 1.26324,1.22039c0.48775,0.46372 0.98079,0.92514 1.46854,1.38887c0.56075,0.52314 1.12529,1.04777 1.68603,1.5709c2.61187,2.41307 5.22904,4.82383 7.86125,7.21862c0.5135,0.4651 1.027,0.93019 1.5405,1.39529c0.44878,0.3958 0.89227,0.79389 1.34105,1.18969c0.26163,0.22571 0.52327,0.45142 0.7849,0.67712c0.12323,0.10987 0.25175,0.21743 0.37498,0.3273c0.22887,0.18652 0.45395,0.37154 0.67753,0.56036c0.11024,0.08722 0.21898,0.17824 0.32773,0.26926c0.19082,0.14963 0.38543,0.30075 0.58005,0.45187c0.09426,0.07217 0.18852,0.14434 0.28278,0.21651c0.16794,0.11871 0.33589,0.23742 0.50004,0.35463c0.08357,0.05481 0.16185,0.11193 0.24542,0.16674c0.14507,0.08779 0.28864,0.17938 0.43371,0.26717c0.07138,0.04125 0.14277,0.08251 0.21415,0.12376c0.12828,0.06366 0.25656,0.12731 0.38105,0.18948c0.06299,0.02918 0.12598,0.05837 0.18897,0.08755c0.11299,0.03573 0.22828,0.07674 0.34357,0.11776c0.05839,0.01861 0.11448,0.03193 0.16908,0.04905c0.10989,0.02136 0.21598,0.04123 0.32207,0.06109c0.10379,0.01458 0.21138,0.03065 0.31517,0.04523c0.20735,-0.01475 0.41091,-0.031 0.61975,-0.04954c0.10138,-0.01266 0.20804,-0.02763 0.31321,-0.0388c0.22907,-0.05878 0.46193,-0.11607 0.6933,-0.16956c0.07184,-0.01553 0.14137,-0.03635 0.21321,-0.05188c0.15183,-0.0629 0.30366,-0.12581 0.45549,-0.18871c0.0793,-0.0345 0.15861,-0.069 0.23412,-0.10499c0.16527,-0.09705 0.33284,-0.18881 0.49812,-0.28585c0.08149,-0.05117 0.16677,-0.10084 0.24975,-0.1558c0.17573,-0.1236 0.34766,-0.2487 0.5196,-0.37379c0.08746,-0.06634 0.17872,-0.13119 0.26618,-0.19753c0.1771,-0.14935 0.35421,-0.2987 0.53281,-0.45184c0.08666,-0.07542 0.1748,-0.15464 0.26675,-0.23236c0.17699,-0.17131 0.35547,-0.3464 0.53245,-0.51771c0.08734,-0.0883 0.17618,-0.18039 0.26352,-0.26868c0.17537,-0.18947 0.34696,-0.38043 0.51854,-0.57139c0.08654,-0.09738 0.17308,-0.19475 0.25961,-0.29213c0.16468,-0.20682 0.32937,-0.41364 0.49256,-0.61667c0.23674,-0.32305 0.46819,-0.64379 0.69963,-0.96454c0.0601,-0.08588 0.11641,-0.17325 0.17652,-0.25912c0.09825,-0.17164 0.1942,-0.34856 0.29246,-0.52019c0.04344,-0.08806 0.08687,-0.17612 0.1341,-0.26268c0.07021,-0.1783 0.14271,-0.35131 0.21292,-0.5296c0.03436,-0.08725 0.06492,-0.176 0.09927,-0.26325c0.04297,-0.17588 0.08972,-0.35026 0.13269,-0.52614c0.02148,-0.08794 0.03917,-0.17737 0.05916,-0.26152c0.01572,-0.17346 0.03524,-0.34542 0.05476,-0.51739c0.00712,-0.08483 0.01044,-0.17116 0.01755,-0.25599c-0.00772,-0.16955 -0.01694,-0.3353 -0.02466,-0.50485c-0.00725,-0.08173 -0.0145,-0.16345 -0.02176,-0.24518c-0.03266,-0.16184 -0.06682,-0.31989 -0.10098,-0.47793c-0.02162,-0.07862 -0.04324,-0.15724 -0.06336,-0.23965c-0.06059,-0.14655 -0.12348,-0.29838 -0.18258,-0.44872c-0.12301,-0.21056 -0.24603,-0.42112 -0.36904,-0.63168c-0.01448,-0.01885 -0.02748,-0.04149 -0.03817,-0.05885c-0.04874,-0.05425 -0.09599,-0.11229 -0.14094,-0.16504c-0.02667,-0.03241 -0.05104,-0.05953 -0.07771,-0.09194c-0.07081,-0.07608 -0.13783,-0.15067 -0.20865,-0.22675c-0.03656,-0.04068 -0.07691,-0.08286 -0.11346,-0.12355c-0.09059,-0.09263 -0.18117,-0.18526 -0.27405,-0.28318c-0.04644,-0.04896 -0.09668,-0.09941 -0.14312,-0.14837c-0.17048,-0.16791 -0.33946,-0.33961 -0.50845,-0.51131c-0.19634,-0.19124 -0.39119,-0.38627 -0.59133,-0.579c-0.22071,-0.21836 -0.44292,-0.43292 -0.66513,-0.64749c-0.24428,-0.2364 -0.49005,-0.46901 -0.73433,-0.70541c-0.35762,-0.33799 -0.71145,-0.67449 -1.06528,-1.01099c-0.595,-0.55853 -1.18621,-1.11557 -1.78122,-1.67411c-0.64443,-0.59991 -1.29036,-1.19602 -1.9348,-1.79592c-0.67559,-0.62094 -1.35117,-1.24187 -2.02676,-1.86281c-0.68547,-0.62921 -1.37623,-1.25612 -2.0617,-1.88533c-0.68237,-0.61484 -1.36324,-1.23348 -2.0456,-1.84832c-0.658,-0.58772 -1.3107,-1.17774 -1.9687,-1.76546c-0.61006,-0.54255 -1.22391,-1.0866 -1.83546,-1.62536c-0.45866,-0.40407 -0.91882,-0.80435 -1.37749,-1.20842c-0.25175,-0.21743 -0.5035,-0.43487 -0.75524,-0.6523c-0.22968,-0.1956 -0.45935,-0.3912 -0.68903,-0.58679c-0.20381,-0.17227 -0.40762,-0.34454 -0.61144,-0.51681c-0.12242,-0.10079 -0.24106,-0.20008 -0.36118,-0.29558c-0.05932,-0.04965 -0.11484,-0.0978 -0.17565,-0.14365c-0.09886,-0.08274 -0.19921,-0.16169 -0.29957,-0.24064c-0.04943,-0.04137 -0.09656,-0.07746 -0.14369,-0.11354c-0.08058,-0.0624 -0.16116,-0.1248 -0.23795,-0.18571c-0.03724,-0.02781 -0.07449,-0.05562 -0.11173,-0.08343c-0.06,-0.03677 -0.11851,-0.07734 -0.17323,-0.11641c-0.0615,-0.03298 -0.11771,-0.06826 -0.17921,-0.10124c-0.07207,-0.02838 -0.14414,-0.05676 -0.22001,-0.08663zM1731.07318,841.67705c-0.05081,-0.01562 -0.10012,-0.03504 -0.14713,-0.04917c-0.09322,-0.01918 -0.18115,-0.04066 -0.27437,-0.05984c-0.04621,-0.00505 -0.09092,-0.01389 -0.13563,-0.02273c-0.08253,-0.00182 -0.16885,-0.00514 -0.25517,-0.00846c-0.08402,0.00197 -0.16804,0.00394 -0.25206,0.00591c-0.16631,0.04406 -0.32883,0.08961 -0.49365,0.12987c-0.26435,0.115 -0.5287,0.22999 -0.79684,0.3435c-0.02643,0.0115 -0.05436,0.02679 -0.0808,0.03829c-0.06712,0.04806 -0.13654,0.09083 -0.20745,0.1374c-0.0362,0.02518 -0.07241,0.05036 -0.1124,0.07405c-0.08746,0.06634 -0.17492,0.13268 -0.25859,0.20052c-0.04827,0.03357 -0.09275,0.06864 -0.13872,0.1075c-0.10252,0.08232 -0.20273,0.16993 -0.30525,0.25225c-0.04896,0.04645 -0.10171,0.0914 -0.15446,0.13636c-0.11228,0.096 -0.22227,0.19729 -0.33605,0.29709c-0.11527,0.10359 -0.23054,0.20718 -0.34202,0.31226c-0.24778,0.23983 -0.49407,0.47586 -0.73806,0.71718c-0.3704,0.38434 -0.73552,0.76638 -1.10593,1.15072c-1.04087,1.14128 -2.09163,2.27428 -3.14238,3.40729c-1.49862,1.61391 -3.00252,3.23013 -4.50873,4.84106c-0.37856,0.41618 -0.75862,0.83616 -1.13867,1.25613c-0.09182,0.09968 -0.17986,0.20085 -0.27317,0.30432c-0.25283,0.28604 -0.50566,0.57207 -0.7585,0.85811c-0.14745,0.17417 -0.29869,0.34685 -0.44763,0.52482c-0.07148,0.0814 -0.14446,0.16659 -0.21744,0.25178c-0.12412,0.14831 -0.24973,0.3004 -0.37384,0.44871c-0.05941,0.073 -0.11883,0.14601 -0.17675,0.21521c-0.09699,0.12393 -0.19249,0.24407 -0.28799,0.36421c-0.04436,0.05702 -0.08872,0.11404 -0.13308,0.17107c-0.06539,0.08818 -0.12549,0.17405 -0.19088,0.26223c-0.05252,0.08886 -0.10354,0.17394 -0.15606,0.2628c-0.01494,0.03794 -0.02987,0.07587 -0.04102,0.1153c-0.02366,0.10461 -0.04354,0.21071 -0.06341,0.31681c-0.00953,0.05759 -0.01527,0.11667 -0.0248,0.17427c-0.00688,0.12874 -0.01525,0.26128 -0.02363,0.39381c-0.00493,0.06816 -0.00607,0.13782 -0.00951,0.20219c0.00531,0.1423 0.01061,0.28461 0.01592,0.42691c0.02531,0.20276 0.04913,0.40932 0.06916,0.61438c0.01012,0.05218 0.01645,0.10288 0.02806,0.15127c0.03082,0.09977 0.06014,0.20333 0.09096,0.3031c0.0192,0.05138 0.0384,0.10276 0.05761,0.15413c0.05737,0.11022 0.11623,0.21665 0.1736,0.32688c0.03058,0.05586 0.06496,0.11321 0.09933,0.17056c0.09381,0.12895 0.18762,0.25791 0.28142,0.38686c0.05185,0.06861 0.10519,0.13343 0.15703,0.20205c0.14243,0.16124 0.28107,0.321 0.425,0.47845c0.03506,0.04448 0.07541,0.08666 0.11197,0.12734c0.09059,0.09263 0.17738,0.18377 0.26417,0.27491c0.04644,0.04896 0.09288,0.09792 0.13553,0.14538c0.10426,0.1024 0.20853,0.2048 0.30751,0.3095c0.05403,0.05195 0.10806,0.10389 0.16059,0.15963c0.12024,0.11745 0.23819,0.22962 0.35843,0.34707c0.06012,0.05873 0.12404,0.11895 0.18266,0.18147c0.20772,0.19572 0.41395,0.39523 0.62167,0.59094c0.23359,0.21905 0.47097,0.43959 0.70456,0.65863c1.23484,1.14787 2.47945,2.28205 3.72026,3.41474c1.4698,1.34116 2.9396,2.68233 4.41389,4.01211c0.42142,0.37626 0.83905,0.75103 1.26047,1.12729c0.24037,0.21295 0.48602,0.42361 0.72639,0.63656c0.11714,0.10309 0.23428,0.20617 0.35291,0.30546c0.20611,0.17756 0.40843,0.35362 0.61603,0.52738c0.10265,0.08424 0.20151,0.16698 0.30037,0.24973c0.17565,0.14365 0.3475,0.28581 0.52464,0.42567c0.08288,0.06769 0.16955,0.13687 0.25244,0.20456c0.14898,0.11124 0.29795,0.22248 0.44693,0.33372c0.0707,0.05413 0.14288,0.10446 0.21358,0.15859c0.12461,0.08412 0.25301,0.16973 0.37761,0.25385c0.0638,0.03827 0.12231,0.07883 0.1861,0.1171c0.10782,0.05998 0.21415,0.12376 0.32577,0.18523c0.05012,0.0285 0.10552,0.0547 0.15943,0.08469c0.09334,0.04113 0.19196,0.07997 0.28909,0.1226c0.04552,0.01792 0.09483,0.03734 0.14035,0.05526c0.08644,0.02527 0.17667,0.05204 0.2646,0.07352c0.08793,0.02148 0.17586,0.04296 0.26,0.06294c0.17115,0.01043 0.34,0.01557 0.50884,0.02071c0.08781,-0.00048 0.17563,-0.00095 0.26195,0.00236c0.19976,-0.01774 0.39804,-0.03168 0.59251,-0.04712c0.04919,-0.00254 0.09839,-0.00508 0.14379,-0.00911c0.11643,-0.02864 0.22907,-0.05878 0.34021,-0.08512c0.05896,-0.01622 0.11942,-0.03623 0.17459,-0.05394c0.12011,-0.04911 0.2455,-0.10051 0.36561,-0.14962c0.05965,-0.02909 0.12309,-0.05669 0.18274,-0.08579c0.117,-0.06347 0.2317,-0.13223 0.3502,-0.1995c0.14929,-0.1121 0.30089,-0.21892 0.45018,-0.33102c0.02034,-0.01828 0.04068,-0.03656 0.05953,-0.05105c0.04896,-0.04645 0.09792,-0.0929 0.15067,-0.13785c0.02333,-0.02587 0.05045,-0.05024 0.07758,-0.07462c0.06401,-0.06243 0.12274,-0.12256 0.18675,-0.18499c0.06401,-0.06243 0.12803,-0.12486 0.19354,-0.19108c0.16262,-0.1682 0.32374,-0.3326 0.48636,-0.5008c0.08734,-0.0883 0.17089,-0.17809 0.25973,-0.27018c0.3049,-0.31812 0.60749,-0.64152 0.91009,-0.96493c0.34926,-0.37514 0.69851,-0.75028 1.04398,-1.12691c0.38385,-0.41848 0.7677,-0.83696 1.15005,-1.25165c0.53807,-0.59875 1.07994,-1.196 1.62032,-1.78946c1.10844,-1.24612 2.21918,-2.48696 3.31854,-3.73228c0.38902,-0.44274 0.77803,-0.88547 1.16326,-1.3297c0.35741,-0.40698 0.71253,-0.81925 1.06764,-1.23152c0.31374,-0.36283 0.62898,-0.72946 0.94042,-1.09758c0.17905,-0.20993 0.35431,-0.42135 0.53336,-0.63128c0.08424,-0.10266 0.16698,-0.20153 0.24973,-0.3004c0.13538,-0.16578 0.27076,-0.33156 0.40614,-0.49734c0.0331,-0.03955 0.06091,-0.0768 0.09401,-0.11634c0.05263,-0.06691 0.10527,-0.13382 0.1579,-0.20073c0.02103,-0.03115 0.04735,-0.06461 0.07217,-0.09427c0.03907,-0.05472 0.07665,-0.10565 0.11952,-0.15888c0.01804,-0.02357 0.03609,-0.04714 0.05183,-0.07599c0.02781,-0.03725 0.05183,-0.07599 0.07964,-0.11324c0.01873,-0.03644 0.04275,-0.07518 0.06297,-0.11542c0.01942,-0.04932 0.03734,-0.09484 0.05527,-0.14036c0.02746,-0.10311 0.04963,-0.20393 0.07329,-0.30853c0.01183,-0.0523 0.01838,-0.10231 0.03021,-0.15461c0.00849,-0.11058 0.0117,-0.21886 0.02019,-0.32944c0.0047,-0.11207 0.00411,-0.22185 0.00881,-0.33392c-0.0444,-0.23219 -0.0873,-0.46817 -0.1279,-0.69886c-0.03093,-0.12172 -0.05957,-0.23816 -0.0882,-0.3546c-0.10267,-0.22884 -0.20534,-0.45768 -0.30801,-0.68652c-0.2167,-0.31756 -0.43341,-0.63512 -0.65011,-0.95268c-0.00839,-0.01207 -0.01828,-0.02034 -0.02667,-0.03241c-0.03046,-0.0339 -0.06621,-0.06551 -0.09668,-0.09941c-0.01828,-0.02034 -0.03805,-0.03689 -0.05253,-0.05574c-0.05173,-0.04666 -0.10196,-0.09711 -0.14841,-0.14607c-0.02966,-0.02482 -0.05403,-0.05195 -0.07989,-0.07528c-0.10196,-0.09711 -0.20014,-0.19273 -0.29831,-0.28835c-0.12404,-0.11895 -0.24577,-0.23261 -0.36751,-0.34627c-0.36142,-0.33949 -0.71904,-0.67748 -1.08195,-1.01318c-2.85155,-2.63889 -5.73172,-5.24962 -8.62695,-7.84437c-0.42901,-0.37925 -0.85273,-0.76079 -1.28173,-1.14004c-0.37498,-0.3273 -0.75226,-0.65989 -1.12723,-0.98719c-0.22209,-0.19261 -0.44567,-0.38143 -0.66397,-0.57254c-0.10875,-0.09102 -0.21749,-0.18204 -0.32624,-0.27305c-0.19163,-0.15871 -0.38555,-0.3227 -0.57718,-0.48141c-0.09656,-0.07746 -0.18933,-0.15342 -0.28209,-0.22938c-0.16726,-0.13158 -0.3383,-0.26466 -0.50705,-0.39245c-0.08058,-0.0624 -0.16116,-0.1248 -0.24554,-0.1887c-0.14668,-0.10595 -0.29336,-0.21191 -0.44003,-0.31786c-0.0684,-0.04884 -0.14059,-0.09917 -0.21277,-0.14951c-0.1261,-0.08032 -0.25599,-0.16214 -0.38209,-0.24247c-0.0638,-0.03827 -0.1238,-0.07504 -0.1876,-0.1133c-0.11311,-0.05768 -0.22622,-0.11537 -0.33933,-0.17305c-0.05391,-0.02999 -0.10932,-0.05619 -0.16093,-0.08089c-0.10242,-0.04033 -0.20253,-0.07537 -0.30116,-0.1142zM1675.59367,790.66689c-0.16219,-0.03319 -0.32816,-0.06787 -0.49414,-0.10256c-0.08333,-0.0109 -0.16517,-0.0256 -0.24851,-0.03651c-0.16873,0.01681 -0.34125,0.03213 -0.51527,0.05125c-0.08471,0.01484 -0.17321,0.02819 -0.25941,0.04683c-0.19114,0.07372 -0.38227,0.14743 -0.57111,0.22644c-0.04908,0.02449 -0.10045,0.0437 -0.14953,0.06819c-0.10263,0.06037 -0.20906,0.11924 -0.3117,0.17961c-0.05586,0.03059 -0.10792,0.06267 -0.15999,0.09475c-0.1124,0.07405 -0.2263,0.15189 -0.34019,0.22973c-0.05884,0.03817 -0.11539,0.08163 -0.17573,0.1236c-0.12516,0.09531 -0.24652,0.19212 -0.37168,0.28744c-0.06333,0.04955 -0.12665,0.09911 -0.19147,0.15246c-0.13642,0.11279 -0.27054,0.23087 -0.40845,0.34745c-0.06781,0.06093 -0.13941,0.12038 -0.20871,0.1851c-0.15067,0.13785 -0.30134,0.2757 -0.45201,0.41355c-0.07608,0.07082 -0.15596,0.14015 -0.23204,0.21097c-0.16492,0.16291 -0.33214,0.32054 -0.49706,0.48345c-0.08436,0.08071 -0.17021,0.16521 -0.25606,0.24971c-0.18147,0.18269 -0.36294,0.36537 -0.54969,0.55036c-0.09033,0.09588 -0.18446,0.19027 -0.27858,0.28466c-0.3049,0.31812 -0.61209,0.63095 -0.91699,0.94906c-0.21905,0.23361 -0.44338,0.46953 -0.66243,0.70314c-1.85397,1.98227 -3.70184,3.97133 -5.54132,5.97245c-0.32213,0.35077 -0.64047,0.70302 -0.95881,1.05528c-0.27168,0.30052 -0.54486,0.60484 -0.81274,0.90686c-0.15124,0.17268 -0.30397,0.34915 -0.45521,0.52183c-0.07148,0.0814 -0.14446,0.16659 -0.21744,0.25178c-0.12262,0.14451 -0.24674,0.29282 -0.37086,0.44112c-0.05941,0.073 -0.11734,0.14221 -0.17675,0.21521c-0.09699,0.12393 -0.19399,0.24786 -0.29248,0.37559c-0.04585,0.06082 -0.0955,0.12014 -0.14135,0.18095c-0.07665,0.10565 -0.14951,0.2128 -0.22616,0.31845c-0.03758,0.05093 -0.07136,0.10335 -0.10894,0.15428c-0.05252,0.08886 -0.11032,0.18003 -0.16812,0.27119c-0.02701,0.04633 -0.04872,0.09036 -0.07423,0.13289c-0.04045,0.08047 -0.0809,0.16094 -0.12135,0.24141c-0.01873,0.03644 -0.03516,0.07817 -0.05389,0.11461c-0.02459,0.07357 -0.05297,0.14565 -0.07606,0.21543c-0.02309,0.06978 -0.04768,0.14335 -0.06698,0.21462c-0.01745,0.13334 -0.03111,0.26818 -0.04707,0.39773c-0.00262,0.21806 -0.00144,0.43761 -0.00405,0.65566c0.00116,0.07495 0.00232,0.14989 0.00876,0.22254c0.0183,0.16495 0.04188,0.32759 0.06546,0.49024c0.01254,0.07943 0.02738,0.16414 0.03992,0.24357c0.04404,0.16632 0.08579,0.32735 0.12604,0.49218c0.02541,0.08011 0.04703,0.15873 0.07244,0.23885c0.0568,0.14505 0.10981,0.28861 0.1666,0.43367c0.09784,0.17436 0.19039,0.35101 0.28443,0.52388c0.00839,0.01207 0.01678,0.02414 0.02518,0.0362c0.03046,0.0339 0.06093,0.06781 0.0899,0.10551c0.01828,0.02034 0.03656,0.04068 0.05104,0.05953c0.05024,0.05045 0.09668,0.09941 0.14542,0.15366c0.02437,0.02712 0.04874,0.05425 0.07691,0.08286c0.06242,0.06401 0.12484,0.12803 0.19106,0.19354c0.03426,0.0354 0.06472,0.0693 0.09898,0.1047c0.16059,0.15963 0.32498,0.32076 0.48408,0.48418c0.31049,0.30191 0.62329,0.60911 0.93757,0.91251c0.3782,0.36362 0.7564,0.72725 1.1361,1.08708c0.43142,0.40649 0.86135,0.81677 1.28899,1.22177c0.62696,0.58864 1.25392,1.17729 1.87858,1.76065c2.24598,2.08496 4.49494,4.16233 6.77103,6.21533c0.39786,0.35822 0.79571,0.71643 1.19506,1.07086c0.28221,0.25134 0.56592,0.49888 0.84813,0.75022c0.1468,0.12791 0.29738,0.25731 0.44418,0.38522c0.12852,0.10757 0.25554,0.21893 0.38406,0.32649c0.0715,0.06321 0.1407,0.12113 0.2137,0.18054c0.03724,0.02781 0.0692,0.05792 0.10265,0.08424c0.05702,0.04436 0.11254,0.09251 0.16955,0.13687c0.02736,0.01954 0.05322,0.04287 0.08058,0.0624c0.03724,0.02781 0.07828,0.05711 0.11783,0.09021c0.03874,0.02402 0.07748,0.04803 0.11621,0.07205c0.02276,0.00896 0.04782,0.02321 0.07058,0.03217c0.08184,0.0147 0.16219,0.03319 0.24023,0.04639c0.04471,0.00884 0.08943,0.01769 0.13563,0.02273c0.11437,0.00998 0.22873,0.01996 0.33931,0.02844c0.11965,0.00768 0.23931,0.01536 0.35896,0.02304c0.27402,-0.00603 0.54953,-0.01585 0.82504,-0.02567c0.07264,-0.00645 0.14379,-0.00911 0.21643,-0.01556c0.12184,-0.00899 0.23988,-0.01947 0.35643,-0.02616c0.05977,-0.00714 0.11574,-0.01577 0.17551,-0.02291c0.10884,-0.03163 0.21769,-0.06326 0.33182,-0.09719c0.05517,-0.01771 0.11183,-0.03922 0.1685,-0.06072c0.12826,-0.08095 0.26032,-0.1604 0.39008,-0.24514c0.03471,-0.02139 0.07091,-0.04657 0.10332,-0.07324c0.08068,-0.06025 0.15757,-0.12199 0.23446,-0.18373c0.04298,-0.03127 0.08367,-0.06783 0.12286,-0.1006c0.09344,-0.08152 0.18687,-0.16303 0.28031,-0.24455c0.04896,-0.04645 0.09642,-0.0891 0.14538,-0.13555c0.11148,-0.10508 0.21916,-0.21166 0.33064,-0.31674c0.05723,-0.05634 0.11596,-0.11646 0.17319,-0.1728c0.13102,-0.13244 0.26582,-0.26339 0.39684,-0.39584c0.0685,-0.07381 0.1355,-0.14382 0.20629,-0.21235c0.2379,-0.2481 0.47728,-0.5 0.71518,-0.7481c0.28076,-0.30133 0.56003,-0.59887 0.84079,-0.9002c1.66422,-1.7897 3.31477,-3.58917 4.96911,-5.38714c0.47487,-0.52724 0.95203,-1.04919 1.42541,-1.57263c0.42441,-0.477 0.84354,-0.95169 1.26416,-1.43018c0.24755,-0.28374 0.49658,-0.57127 0.74413,-0.855c0.11734,-0.14221 0.23697,-0.27914 0.35661,-0.41606c0.20835,-0.25097 0.41671,-0.50194 0.62886,-0.75142c0.09929,-0.11864 0.20008,-0.24108 0.29558,-0.36122c0.17146,-0.21291 0.34143,-0.42204 0.5091,-0.63645c0.07895,-0.10036 0.1594,-0.20452 0.23835,-0.30489c0.12929,-0.17256 0.25857,-0.34512 0.38786,-0.51768c0.05861,-0.08208 0.11722,-0.16417 0.17583,-0.24625c0.08711,-0.13221 0.17422,-0.26441 0.25753,-0.39811c0.0817,-0.15186 0.16191,-0.29993 0.23982,-0.45328c0.04332,-0.11001 0.08514,-0.21623 0.12846,-0.32625c0.05951,-0.19565 0.11374,-0.389 0.16797,-0.58236c0.02447,-0.09553 0.04515,-0.19255 0.06962,-0.28807c-0.00175,-0.18472 0.00179,-0.37174 0.00004,-0.55646c-0.00254,-0.0492 -0.00656,-0.0946 -0.01059,-0.14c-0.02174,-0.10058 -0.04117,-0.19586 -0.0644,-0.29264c-0.01162,-0.04839 -0.02702,-0.09828 -0.03864,-0.14667c-0.0422,-0.10425 -0.08589,-0.20471 -0.12429,-0.30746c-0.02299,-0.05287 -0.04599,-0.10574 -0.06898,-0.15861c-0.06645,-0.10942 -0.13141,-0.22263 -0.19257,-0.33435c-0.03437,-0.05735 -0.06875,-0.1147 -0.10312,-0.17206c-0.09151,-0.12367 -0.17773,-0.24963 -0.26545,-0.37181c-0.04575,-0.06183 -0.09381,-0.12895 -0.13956,-0.19079c-0.11657,-0.13792 -0.23164,-0.27962 -0.34442,-0.41605c-0.06323,-0.07309 -0.12266,-0.1447 -0.18209,-0.2163c-0.14393,-0.15745 -0.28785,-0.3149 -0.43178,-0.47235c-0.07461,-0.07758 -0.15151,-0.16044 -0.22462,-0.24181c-0.17508,-0.17848 -0.35015,-0.35696 -0.52673,-0.53165c-0.09059,-0.09263 -0.18117,-0.18526 -0.27176,-0.27789c-0.21002,-0.201 -0.41476,-0.40431 -0.62478,-0.60531c-0.10806,-0.10389 -0.21611,-0.20778 -0.32417,-0.31168c-0.36981,-0.35156 -0.73732,-0.69782 -1.10862,-1.04559c-0.42832,-0.39212 -0.85284,-0.78275 -1.28116,-1.17487c-1.03539,-0.94226 -2.07078,-1.88452 -3.10916,-2.8192c-0.54695,-0.49141 -1.09919,-0.98053 -1.64763,-1.46815c-0.52407,-0.4605 -1.04585,-0.91571 -1.56992,-1.3762c-0.48522,-0.41453 -0.96894,-0.83284 -1.45416,-1.24737c-0.42969,-0.36637 -0.86468,-0.73045 -1.29587,-1.09302c-0.25094,-0.20835 -0.49958,-0.41142 -0.75053,-0.61977c-0.06081,-0.04585 -0.11633,-0.09401 -0.17565,-0.14365c-0.16346,-0.13009 -0.32692,-0.26018 -0.49039,-0.39027c-0.09426,-0.07217 -0.19082,-0.14963 -0.28887,-0.22329c-0.04334,-0.03459 -0.09047,-0.07068 -0.1376,-0.10676c-0.08058,-0.0624 -0.16116,-0.1248 -0.24324,-0.18341c-0.04104,-0.0293 -0.07828,-0.05711 -0.11403,-0.08872c-0.06989,-0.04505 -0.13449,-0.09239 -0.19909,-0.13974c-0.03115,-0.02103 -0.0623,-0.04206 -0.09345,-0.06309c-0.04862,-0.03229 -0.09874,-0.06079 -0.14737,-0.09308c-0.05391,-0.02999 -0.10932,-0.05619 -0.16323,-0.08618c-0.08345,-0.03286 -0.1669,-0.06572 -0.25415,-0.10007z" stroke-linecap="round"/>
</g>
		<g transform="matrix(0.379323 0.149361 -0.149374 0.379355 1683.805009 854.968195) matrix(1 0 0 1 0 0)" id="c0d4fc90-cdf9-4062-8d6e-d7ed1adc0284">
<linearGradient id="SVGID_79" gradientUnits="objectBoundingBox" gradientTransform="matrix(0 -1 1 0 0 1)" x1="0" y1="0.5" x2="1" y2="0.5">
<stop offset="0%" style="stop-color:rgb(255, 181, 253);stop-opacity: 1"/>
<stop offset="100%" style="stop-color:rgb(255, 252, 144);stop-opacity: 1"/>
</linearGradient>
<path style="stroke: rgb(193,193,193); stroke-width: 0; stroke-dasharray: none; stroke-linecap: butt; stroke-dashoffset: 0; stroke-linejoin: miter; stroke-miterlimit: 4; fill: url(#SVGID_79); fill-rule: nonzero; opacity: 1;" transform=" translate(-526.787116, -511.370775)" d="M 608.50 798.05 C 604.19 796.99 588.16 790.85 508.00 759.54 C 482.98 749.77 455.75 739.17 447.50 736.00 C 428.65 728.75 403.52 719.02 357.00 700.99 C 336.93 693.20 315.32 684.86 309.00 682.44 C 274.74 669.36 268.78 666.65 265.58 662.65 C 262.76 659.14 262.51 658.19 262.57 651.65 C 262.63 644.86 263.45 642.39 278.73 603.00 C 287.59 580.17 305.62 533.60 318.81 499.50 C 342.92 437.19 360.32 392.36 368.69 371.00 C 371.17 364.68 383.95 331.70 397.09 297.72 C 410.23 263.74 421.64 234.66 422.45 233.09 C 424.63 228.89 429.41 225.28 433.77 224.54 C 438.54 223.73 437.05 223.23 492.00 244.22 C 516.48 253.57 581.95 278.24 637.50 299.04 C 775.36 350.68 782.95 353.61 785.74 356.22 C 787.09 357.47 788.82 359.72 789.60 361.20 C 792.76 367.28 791.77 370.81 774.41 415.13 C 765.29 438.43 749.57 478.65 739.49 504.50 C 729.41 530.35 713.89 569.95 705.02 592.50 C 696.14 615.05 681.95 651.27 673.48 673.00 C 634.95 771.85 627.87 789.66 626.14 792.00 C 622.50 796.92 614.73 799.59 608.50 798.05 M 536.13 611.91 C 539.60 609.44 543.39 602.07 545.09 594.48 C 546.43 588.52 544.75 583.19 540.70 580.54 C 535.97 577.44 471.76 553.00 468.35 553.00 C 459.07 553.00 449.31 568.18 451.41 579.35 C 452.66 586.04 455.54 587.62 492.16 601.75 C 529.01 615.97 530.07 616.22 536.13 611.91 M 660.84 519.69 C 662.12 519.08 663.82 517.32 664.60 515.80 C 667.45 510.29 683.00 467.99 683.00 465.75 C 683.00 462.76 680.57 459.34 677.19 457.60 C 675.71 456.84 663.40 452.06 649.82 446.98 C 623.40 437.09 621.88 436.83 617.66 441.45 C 616.47 442.76 613.97 447.80 612.11 452.66 C 610.25 457.52 606.08 468.17 602.86 476.32 C 599.64 484.47 597.00 492.12 597.00 493.32 C 597.01 494.52 597.83 496.85 598.84 498.51 C 600.42 501.10 603.36 502.54 620.09 508.93 C 655.64 522.52 655.21 522.40 660.84 519.69 M 486.46 454.45 C 490.30 452.63 489.82 453.61 500.57 425.76 C 505.98 411.75 509.00 402.52 509.00 400.02 C 509.00 393.14 507.04 391.91 479.26 381.48 C 465.38 376.27 452.63 372.00 450.93 372.00 C 445.58 372.00 443.00 375.92 435.13 396.00 C 423.50 425.65 423.44 425.84 425.28 430.17 C 426.13 432.19 427.99 434.60 429.40 435.52 C 432.18 437.35 479.64 455.81 481.85 455.93 C 482.59 455.97 484.67 455.30 486.46 454.45 Z" stroke-linecap="round"/>
</g>
</g>
</g>

  </svg>