<svg xmlns="http://www.w3.org/2000/svg" width="120" height="40" viewBox="0 0 120 40" fill="none">
  <path d="M21.0625 31.25C18.125 31.25 15.6562 30.3125 13.6562 28.4375C11.6562 26.5625 10.6562 24.1562 10.6562 21.25V20C10.6562 17.8438 11.1562 15.9375 12.1562 14.375C13.1562 12.8125 14.5312 11.5938 16.2812 10.7188C18.0312 9.84375 20 9.40625 22.1875 9.40625C24.875 9.40625 27.0625 10.2812 28.75 12.0312C30.4375 13.7812 31.2812 16.2188 31.2812 19.375V21.5625H16.5625C16.7708 23.0208 17.3333 24.1875 18.25 25.0625C19.1875 25.9375 20.3438 26.375 21.7188 26.375C23.8438 26.375 25.5312 25.625 26.7812 24.125L30.6562 27.375C29.6562 28.625 28.3333 29.6562 26.6875 30.4688C25.0417 30.9896 23.1458 31.25 21.0625 31.25ZM22.1562 14.2812C21.0938 14.2812 20.2188 14.6458 19.5312 15.375C18.8438 16.1042 18.375 17.125 18.125 18.4375H25.7812V17.9375C25.7604 16.7708 25.4375 15.8542 24.8125 15.1875C24.1875 14.5833 23.2812 14.2812 22.1562 14.2812Z" fill="#2563EB"/>
  <path d="M46.0806 30.75L40.5964 19.9688V30.75H34.6527V5.97656H40.5964V18.9219L45.9932 9.90625H53.1214L45.7245 20.3125L53.4777 30.75H46.0806Z" fill="#2563EB"/>
  <path d="M64.9414 30.75C64.6727 30.25 64.4664 29.625 64.3227 28.875C63.1727 30.3542 61.4852 31.0938 59.2602 31.0938C57.1352 31.0938 55.3539 30.5 53.9164 29.3125C52.4789 28.125 51.7602 26.6458 51.7602 24.875C51.7602 22.6667 52.6039 20.9688 54.2914 19.7812C55.9789 18.5938 58.3852 18 61.5102 18H63.9789V16.9062C63.9789 16.0312 63.7602 15.3333 63.3227 14.8125C62.8852 14.2917 62.1852 14.0312 61.2227 14.0312C60.3539 14.0312 59.6727 14.2292 59.1789 14.625C58.6852 15.0208 58.4382 15.5729 58.4382 16.2812H52.4945C52.4945 15.0312 52.8852 13.8958 53.6664 12.875C54.4477 11.8542 55.5414 11.0521 56.9477 10.4688C58.3539 9.88542 59.9164 9.59375 61.6352 9.59375C64.1977 9.59375 66.2289 10.2083 67.7289 11.4375C69.2289 12.6667 69.9789 14.3958 69.9789 16.625V25.5C69.9789 27.3958 70.2914 28.8438 70.9164 29.8438V30.75H64.9414ZM60.7602 26.625C61.5102 26.625 62.1727 26.4688 62.7477 26.1562C63.3227 25.8229 63.7289 25.4062 63.9789 24.9062V21.125H62.0414C59.7477 21.125 58.5102 22.0104 58.3289 23.7812L58.3102 24.0312C58.3102 24.6562 58.5227 25.1667 58.9477 25.5625C59.3727 26.2708 59.9727 26.625 60.7602 26.625Z" fill="#121214"/>
  <path d="M84.9277 19.9688C84.9277 16.4271 85.632 13.6458 87.0402 11.625C88.4485 9.60417 90.4485 8.59375 93.0402 8.59375C95.0089 8.59375 96.632 9.34375 97.9089 10.8438V0.5H103.878V30.75H98.7339L98.3089 28.3438C96.9485 30.1771 95.2402 31.0938 93.1839 31.0938C90.6777 31.0938 88.7245 30.0833 87.3245 28.0625C85.9243 26.0208 85.216 23.1458 85.0027 19.4375L84.9277 19.9688ZM90.8714 20.625C90.8714 22.5417 91.1402 23.9583 91.6777 24.875C92.2152 25.7708 93.0277 26.2188 94.1152 26.2188C95.6152 26.2188 96.6568 25.5625 97.2402 24.25V16.375C96.6777 15.0625 95.6464 14.4062 94.1464 14.4062C91.9527 14.4062 90.8714 16.4792 90.8714 20.625Z" fill="#121214"/>
  <path d="M116.312 31.0938C113.104 31.0938 110.5 30.1354 108.5 28.2188C106.5 26.3021 105.5 23.7917 105.5 20.6875V20.0938C105.5 17.9375 105.979 16.0104 106.938 14.3125C107.896 12.5938 109.271 11.2917 111.062 10.4062C112.854 9.52083 114.917 9.07812 117.25 9.07812C120.125 9.07812 122.417 9.99479 124.125 11.8281C125.833 13.6615 126.688 16.1875 126.688 19.4062V22.0938H111.562C111.812 23.5938 112.417 24.7708 113.375 25.625C114.333 26.4792 115.542 26.9062 117 26.9062C119.208 26.9062 120.979 26.0938 122.312 24.4688L126 27.3438C125.042 28.6354 123.771 29.6562 122.188 30.4062C120.604 30.8646 118.542 31.0938 116.312 31.0938ZM117.219 13.25C116.094 13.25 115.167 13.6354 114.438 14.4062C113.708 15.1771 113.25 16.2812 113.062 17.7188H121.062V17.2188C121.021 15.9688 120.688 15 120.062 14.3125C119.438 13.6042 118.489 13.25 117.219 13.25Z" fill="#121214"/>
</svg> 